<?xml version="1.0" encoding="UTF-8"?>
<svg id="Capa_1" data-name="Capa 1" xmlns="http://www.w3.org/2000/svg" viewBox="0 0 500 500">
  <defs>
    <style>
      .cls-1 {
        fill: #fff;
      }

      .cls-2 {
        fill: #103e87;
      }
    </style>
  </defs>
  <circle class="cls-2" cx="250" cy="250" r="242.5"/>
  <g>
    <path class="cls-1" d="m176.62,255.27c.09-1.07.21-2.14.36-3.2.14-1.06.32-2.12.51-3.18.2-1.06.42-2.11.67-3.15.25-1.04.52-2.08.82-3.11,4.94-16.92,16.52-29.79,31.92-38.08,17.1-9.2,36.14-8.93,54.31-3.32,5.21,1.61,10.5,4.19,15.8,1.34,2.21-1.19,3.85-3.21,4.4-5.67.07-.31.12-.62.15-.94.04-.32.05-.63.05-.95,0-.32,0-.63-.03-.95-.03-.32-.08-.63-.14-.94-.06-.31-.13-.62-.23-.92-.09-.3-.2-.6-.32-.9-.13-.29-.27-.58-.42-.86-.15-.28-.32-.55-.5-.81-4.36-6.34-21.65-9.33-28.88-10.33-6.35-.88-12.69-.97-19.08-.76-23.15,2.2-44.98,11.63-59.97,29.95-14.3,17.47-20.36,39.51-17.94,61.84.15,1.38.34,2.76.56,4.13.22,1.37.47,2.74.76,4.1.29,1.36.61,2.71.96,4.06.35,1.34.74,2.68,1.16,4,.42,1.32.87,2.64,1.35,3.94.48,1.3,1,2.59,1.54,3.87.55,1.28,1.12,2.54,1.73,3.79.61,1.25,1.25,2.48,1.92,3.7.67,1.22,1.37,2.42,2.1,3.6.73,1.18,1.48,2.35,2.27,3.49.79,1.15,1.6,2.27,2.44,3.38.84,1.11,1.71,2.19,2.6,3.25.89,1.06,1.81,2.1,2.76,3.12.95,1.02,1.91,2.01,2.91,2.98.99.97,2.01,1.92,3.05,2.84,1.04.92,2.1,1.81,3.19,2.68.54.44,1.09.87,1.64,1.29.55.42,1.11.84,1.67,1.25.56.41,1.13.81,1.7,1.21.57.4,1.15.78,1.73,1.16.58.38,1.17.75,1.76,1.12.59.37,1.19.72,1.79,1.08.6.35,1.2.69,1.81,1.03.61.34,1.23.66,1.84.99.62.32,1.24.63,1.87.94.63.3,1.25.6,1.88.89.63.29,1.27.57,1.91.84.64.27,1.28.54,1.92.8.65.26,1.3.51,1.95.75.66.24,1.31.47,1.97.7.66.22,1.33.44,1.99.65.66.21,1.33.41,1.99.6.67.19,1.34.37,2.02.55.67.17,1.34.34,2.02.5.68.16,1.36.31,2.04.45.68.14,1.36.27,2.04.4.68.12,1.37.24,2.05.34.69.11,1.38.2,2.07.29.69.09,1.38.17,2.08.24.69.07,1.38.14,2.08.19.69.05,1.39.1,2.09.14.69.04,1.39.06,2.09.08.69.02,1.38.03,2.08.03.7,0,1.39,0,2.09-.02.7-.02,1.39-.04,2.09-.07.7-.03,1.39-.07,2.09-.12.69-.05,1.38-.11,2.08-.18.69-.07,1.38-.14,2.08-.23,22.38-2.68,42.92-15.13,56.68-32.84,13.99-17.99,19.15-41.37,16.14-63.76-1.08-8.03-3.35-22.85-10.3-28.08-1.86-1.4-3.97-1.99-6.29-1.65-2.28.34-4,1.63-5.8,2.99-.67,2.6-2.28,5.34-2.49,7.98-.18,2.33,5.19,16.67,5.99,22.31,3.77,26.59-8.34,52.37-31.57,65.9-.93.54-1.87,1.05-2.82,1.54-.95.49-1.92.95-2.9,1.39-.97.44-1.96.86-2.96,1.25-.99.39-2,.76-3.02,1.1s-2.04.66-3.07.95c-1.03.29-2.07.56-3.11.8-1.05.24-2.09.46-3.15.64-1.06.19-2.12.35-3.18.49-1.07.14-2.13.25-3.2.33-1.07.08-2.14.14-3.21.17-1.07.03-2.14.03-3.21.01-1.07-.02-2.14-.07-3.21-.15-1.07-.08-2.13-.18-3.2-.31-1.06-.13-2.12-.28-3.18-.46-1.05-.18-2.1-.39-3.16-.62-1.05-.23-2.08-.49-3.11-.78-17.26-4.67-31.4-16.26-40.09-31.81-.52-.94-1.01-1.89-1.48-2.86-.47-.97-.92-1.94-1.34-2.93-.42-.99-.82-1.98-1.19-2.99-.37-1.01-.72-2.02-1.04-3.05-.32-1.02-.62-2.05-.89-3.09-.27-1.04-.52-2.08-.74-3.13-.22-1.05-.42-2.11-.59-3.17-.17-1.06-.31-2.12-.43-3.19-.12-1.07-.21-2.14-.27-3.21-.06-1.07-.1-2.14-.12-3.22-.01-1.07,0-2.15.04-3.22.04-1.07.11-2.14.2-3.21Z"/>
    <path class="cls-1" d="m390.96,129.69c-4.29-3.58-18.24-1.78-24.04-1.96,1.85-4.35,1.75-14.47.12-18.85-.82-2.17-2.31-4.11-4.56-4.91-2.01-.71-4.58-.24-6.62.21-6.67,6.61-29.57,33.06-34.66,36.25,1.83,4.05,4.56,21.78,3.05,25.81-.93,2.71-58.94,61.31-64.44,64.23-5.31-4.42-15.62-5.52-22.31-4.88-.58.05-1.17.12-1.75.2-.58.08-1.16.17-1.74.28-.58.11-1.15.23-1.72.37-.58.14-1.15.29-1.71.46-.56.17-1.12.35-1.68.54-.56.19-1.1.4-1.64.62-.55.22-1.09.46-1.62.71-.53.25-1.06.51-1.58.79-.52.27-1.03.56-1.54.86-.5.3-1,.61-1.49.94-.49.33-.97.66-1.44,1.01-.48.35-.94.71-1.39,1.08-.45.37-.9.76-1.34,1.15-.43.4-.86.8-1.28,1.22-.41.42-.81.84-1.21,1.28-.39.44-.77.88-1.15,1.34-.38.47-.75.96-1.1,1.45-.36.49-.71.99-1.04,1.5-.33.51-.65,1.03-.96,1.55-.3.52-.59,1.06-.88,1.59-.28.54-.55,1.08-.81,1.64-.25.55-.49,1.11-.72,1.67-.22.56-.44,1.13-.64,1.71-.19.57-.38,1.15-.55,1.74-.17.58-.33,1.17-.48,1.76-.14.59-.27,1.19-.38,1.78-.12.6-.22,1.2-.3,1.8-.08.6-.15,1.21-.21,1.81-.06.61-.1,1.21-.12,1.82-.03.61-.04,1.22-.03,1.82,0,.61.03,1.22.05,1.82.04.61.09,1.21.15,1.82.07.61.15,1.22.25,1.83.1.61.22,1.22.35,1.82.13.6.27,1.2.43,1.8.16.6.33,1.19.52,1.78.19.59.4,1.17.62,1.75.22.58.45,1.15.69,1.71s.5,1.13.78,1.68c.27.55.56,1.1.87,1.64.3.54.61,1.07.94,1.59.32.52.66,1.04,1.02,1.54.35.51.72,1,1.09,1.49.37.49.76.97,1.17,1.44.4.47.81.93,1.23,1.38.43.45.86.89,1.31,1.31.44.43.89.84,1.36,1.25.47.41.94.8,1.43,1.18,5.85,4.53,12.42,6.53,19.71,7.11,11.08.14,20.33-2.16,28.46-10.15,7.08-6.95,11.49-17.2,11.43-27.14-.04-5.36-1.86-14.14-5.97-17.89-.13-.11-.27-.21-.41-.31,4.14-2.35,64.14-62.67,64.77-64.96,10.75-.06,17.52,1.98,25.73-6.41,6.78-6.91,25.9-25.35,30.05-31.95.7-1.11.99-2.46.96-3.76-.05-2.27-1.33-4.32-3.04-5.75Zm-131.2,132.8c-.02.59-.07,1.17-.15,1.75-.08.58-.19,1.16-.32,1.73-.14.57-.3,1.13-.5,1.69-.19.55-.41,1.1-.66,1.63-.25.53-.52,1.05-.82,1.55-.3.5-.63.99-.97,1.46-3.32,4.46-7.68,6.39-12.99,7.16-3.46.32-6.79-.3-9.95-1.77-.27-.12-.53-.26-.79-.39-.26-.14-.52-.28-.77-.44-.25-.15-.5-.31-.75-.47-.25-.17-.49-.34-.72-.51-.23-.18-.46-.36-.68-.55-.23-.19-.45-.39-.66-.59-.22-.2-.43-.41-.63-.62-.21-.21-.41-.43-.59-.65-.19-.22-.38-.45-.56-.68-.18-.23-.35-.47-.52-.71-.17-.24-.34-.49-.49-.74-.15-.25-.3-.51-.44-.76-.14-.26-.28-.52-.4-.79-.13-.27-.25-.53-.37-.81-.11-.27-.21-.55-.31-.82-.09-.28-.18-.56-.27-.84-.17-.56-.32-1.13-.43-1.7-.12-.57-.2-1.15-.26-1.73-.06-.58-.09-1.17-.09-1.75s.03-1.17.08-1.75c.06-.58.14-1.16.26-1.74.11-.57.25-1.14.41-1.7.17-.56.37-1.11.58-1.65.22-.54.47-1.07.75-1.59,2.98-5.63,7.48-7.93,13.34-9.57,4.33-.42,8.43.23,12.18,2.56.27.17.53.35.8.53.26.18.51.37.76.57.25.2.5.4.74.61.25.21.48.42.7.65.23.22.45.45.67.68.22.23.43.47.63.72.21.24.41.49.59.75.19.25.38.51.55.78.18.26.35.53.52.81.16.27.31.55.46.83.14.28.28.57.42.86.14.29.26.58.38.88.12.3.23.59.34.9.1.3.19.61.28.91s.17.61.24.93c.07.31.13.62.18.94.1.58.17,1.16.21,1.75.04.58.05,1.17.03,1.76Zm101.85-116.03c-.88,3.46-7.72,9.01-10.68,10.95l-.19.58c-2.17,1.2-7.14.65-9.72.65.3-.59.57-1.11.68-1.78.5-3.06-.26-8.3-1.99-10.91,3.63-2.71,7.57-6.87,10.06-10.67l1.16.57c.77,3.13.81,6.94-.58,9.88l11.34.13c-.02.2-.02.41-.06.6Z"/>
    <path class="cls-1" d="m107.75,281.98c.19,1.12.4,2.23.62,3.34.22,1.11.45,2.22.7,3.33.25,1.11.5,2.21.78,3.31.27,1.1.56,2.2.86,3.29.3,1.09.61,2.18.94,3.27.33,1.09.66,2.17,1.02,3.24.35,1.08.72,2.15,1.09,3.22.38,1.07.77,2.13,1.17,3.19.4,1.06.82,2.11,1.25,3.16.43,1.05.87,2.09,1.32,3.13.45,1.04.92,2.07,1.4,3.1.48,1.03.97,2.05,1.48,3.06.5,1.02,1.02,2.02,1.55,3.03.53,1,1.07,2,1.62,2.99.55.99,1.12,1.97,1.69,2.95.58.97,1.17,1.94,1.77,2.9.6.96,1.21,1.91,1.84,2.86.62.95,1.26,1.88,1.91,2.81.65.93,1.3,1.85,1.97,2.77.67.91,1.35,1.82,2.04,2.72.69.9,1.39,1.79,2.11,2.67.71.88,1.43,1.75,2.17,2.62.73.86,1.48,1.72,2.23,2.56.75.84,1.52,1.68,2.29,2.51.77.83,1.56,1.64,2.35,2.45.79.81,1.6,1.61,2.41,2.39.81.79,1.64,1.57,2.47,2.33.83.77,1.67,1.53,2.53,2.27.85.75,1.71,1.48,2.58,2.21.87.73,1.75,1.44,2.63,2.15.89.71,1.78,1.4,2.68,2.08.88.65,1.76,1.29,2.65,1.92.89.63,1.79,1.25,2.7,1.86.91.61,1.82,1.2,2.75,1.79.92.59,1.85,1.16,2.79,1.72.94.56,1.88,1.11,2.83,1.65.95.54,1.91,1.07,2.87,1.58.96.52,1.93,1.02,2.91,1.51.97.49,1.95.97,2.94,1.44.99.47,1.98.93,2.98,1.37,1,.44,2,.88,3.01,1.3,1.01.42,2.02.83,3.04,1.22,1.02.4,2.04.78,3.07,1.15,1.03.37,2.06.73,3.09,1.07,1.04.35,2.08.68,3.12,1,1.05.32,2.09.63,3.15.92,1.05.29,2.11.58,3.17.85,1.05.27,2.11.53,3.18.77,1.07.24,2.13.47,3.2.69,1.07.22,2.15.42,3.22.61,1.07.19,2.15.37,3.23.54,1.07.17,2.16.32,3.24.46,1.08.14,2.17.26,3.25.38,1.08.11,2.17.21,3.25.3,1.09.09,2.18.16,3.28.22,1.09.06,2.18.11,3.27.14,1.1.03,2.19.05,3.28.06,1.1,0,2.19,0,3.28-.02,1.09-.02,2.18-.05,3.28-.1,1.09-.05,2.18-.11,3.27-.18,1.09-.07,2.18-.16,3.27-.26,1.09-.1,2.18-.21,3.27-.34,1.08-.13,2.16-.27,3.24-.42,1.12-.16,2.23-.34,3.35-.53,1.12-.19,2.23-.39,3.34-.61,1.11-.22,2.22-.45,3.32-.69,1.11-.25,2.21-.5,3.31-.78,1.1-.27,2.19-.56,3.29-.86,1.09-.3,2.17-.61,3.25-.94,1.09-.33,2.17-.67,3.24-1.02,1.07-.35,2.14-.72,3.21-1.1,1.07-.38,2.13-.77,3.19-1.18,1.05-.41,2.1-.82,3.15-1.26,1.05-.43,2.09-.88,3.12-1.33,1.04-.46,2.07-.93,3.09-1.41,1.02-.48,2.04-.98,3.05-1.49,1.01-.51,2.01-1.03,3.02-1.56,1-.53,1.99-1.08,2.97-1.63.99-.56,1.97-1.13,2.94-1.71.97-.58,1.93-1.17,2.89-1.78.96-.6,1.91-1.22,2.84-1.85.94-.63,1.88-1.27,2.8-1.92.93-.65,1.85-1.31,2.76-1.99.91-.67,1.81-1.36,2.7-2.06.89-.7,1.78-1.4,2.65-2.12.88-.72,1.74-1.45,2.6-2.19.86-.74,1.71-1.49,2.55-2.25.84-.76,1.67-1.53,2.49-2.31.81-.78,1.62-1.57,2.42-2.37.8-.8,1.59-1.61,2.38-2.43.78-.82,1.55-1.65,2.3-2.49.76-.84,1.51-1.69,2.25-2.55.74-.86,1.47-1.72,2.18-2.6.72-.88,1.43-1.76,2.12-2.65.7-.89,1.38-1.79,2.05-2.7.65-.88,1.29-1.78,1.92-2.68.63-.9,1.24-1.81,1.85-2.72.61-.92,1.2-1.84,1.78-2.77.58-.93,1.16-1.87,1.72-2.81.56-.94,1.11-1.9,1.65-2.85.53-.96,1.06-1.92,1.57-2.89.52-.97,1.02-1.95,1.51-2.93.49-.98.97-1.97,1.44-2.97.46-.99.91-1.99,1.35-3,.45-1.01.88-2.02,1.3-3.03.41-1.02.81-2.04,1.21-3.06.39-1.03.77-2.06,1.14-3.09.37-1.04.72-2.07,1.06-3.12.34-1.04.67-2.09.98-3.14.32-1.05.62-2.11.91-3.17s.57-2.12.83-3.19c.26-1.07.51-2.14.75-3.21.24-1.07.46-2.15.67-3.23.22-1.08.41-2.16.59-3.24.19-1.08.36-2.17.52-3.25.16-1.09.3-2.18.43-3.27.13-1.09.25-2.18.36-3.28.1-1.09.19-2.19.27-3.28.08-1.1.14-2.19.19-3.29.05-1.1.09-2.2.11-3.29.02-1.1.03-2.2.03-3.29s-.01-2.2-.04-3.3c-.04-1.1-.08-2.2-.14-3.29-.05-1.1-.12-2.19-.21-3.29-.09-1.1-.18-2.19-.29-3.28-.11-1.09-.23-2.18-.37-3.27-.14-1.09-.29-2.18-.45-3.26-1.96-13.06-11.13-45.87-21.26-53.74-3.03-2.36-6.43-2.71-10.14-2.07-1.89.33-3.45,1.25-4.56,2.84-1.47,2.1-1.98,4.8-1.49,7.3,1.23,6.42,12.86,19.06,11.14,24.66.23.27.45.54.68.82,7.76,9.93,8.07,47.27,6.02,59.52-.15.94-.32,1.88-.5,2.81-.18.93-.37,1.87-.57,2.8-.2.93-.41,1.86-.64,2.78s-.46,1.85-.7,2.76c-.25.92-.5,1.83-.78,2.75-.27.91-.54,1.82-.83,2.73-.3.91-.6,1.81-.92,2.71-.31.9-.63,1.79-.97,2.68-.34.89-.68,1.78-1.04,2.66-.36.88-.73,1.76-1.11,2.63-.38.87-.77,1.74-1.17,2.6-.4.86-.82,1.72-1.24,2.57-.42.85-.85,1.7-1.3,2.54-.45.84-.9,1.68-1.36,2.51-.47.83-.94,1.65-1.43,2.47-.48.82-.98,1.63-1.48,2.44-.5.81-1.02,1.61-1.55,2.4-.53.79-1.06,1.58-1.61,2.36-.54.78-1.09,1.55-1.65,2.32-.56.77-1.14,1.53-1.72,2.28-.58.75-1.17,1.5-1.77,2.23-.61.74-1.22,1.47-1.84,2.19-.62.72-1.25,1.44-1.88,2.14-.63.71-1.28,1.41-1.94,2.1-.66.69-1.32,1.37-1.99,2.05-.67.67-1.35,1.34-2.03,2-.69.66-1.39,1.31-2.09,1.95-.71.64-1.42,1.27-2.14,1.89-.72.62-1.45,1.24-2.18,1.84-.73.6-1.47,1.2-2.22,1.79-.75.59-1.51,1.16-2.27,1.73-.76.57-1.54,1.12-2.31,1.67-.79.55-1.58,1.09-2.38,1.63-.8.53-1.6,1.06-2.41,1.57-.81.51-1.63,1.02-2.45,1.51-.83.49-1.66.98-2.5,1.45-.84.47-1.68.94-2.52,1.39-.85.45-1.7.89-2.56,1.33-.86.43-1.72.85-2.58,1.26-.87.41-1.75.81-2.63,1.2-.87.39-1.75.77-2.64,1.13-.89.37-1.79.72-2.68,1.07-.89.35-1.79.68-2.7,1-.9.32-1.81.64-2.72.94-.91.3-1.82.59-2.75.87-.92.28-1.83.55-2.76.8-.93.26-1.86.5-2.79.74-.93.23-1.86.46-2.8.67-.94.21-1.88.41-2.82.6-.94.19-1.89.36-2.83.53-.94.17-1.89.32-2.84.46-.95.14-1.9.27-2.85.39-.95.12-1.91.22-2.87.32-.95.1-1.91.18-2.87.25-.96.07-1.92.13-2.88.18-.96.05-1.92.09-2.88.11-.96.02-1.92.04-2.89.04-.96,0-1.92,0-2.88-.03-.96-.02-1.92-.06-2.88-.1-.97-.05-1.92-.1-2.88-.17-.96-.07-1.92-.15-2.88-.24-.96-.09-1.91-.2-2.87-.31-.95-.12-1.9-.24-2.85-.38-.95-.14-1.9-.29-2.84-.45-.94-.17-1.87-.34-2.8-.53-.93-.19-1.86-.39-2.78-.6-.93-.21-1.85-.44-2.77-.67-.92-.24-1.84-.48-2.76-.74-.91-.26-1.82-.53-2.72-.81-.91-.28-1.81-.57-2.71-.88-.9-.3-1.79-.62-2.68-.94-.89-.33-1.78-.66-2.67-1.01-.88-.35-1.76-.71-2.64-1.08-.88-.37-1.75-.75-2.61-1.14-.87-.39-1.73-.79-2.58-1.21-.85-.41-1.7-.84-2.55-1.27-.84-.43-1.68-.88-2.52-1.33-.83-.45-1.66-.92-2.48-1.39-.82-.48-1.64-.96-2.45-1.46-.81-.5-1.61-1-2.41-1.52-.8-.52-1.59-1.04-2.37-1.58-.78-.54-1.56-1.08-2.33-1.64-.77-.55-1.53-1.12-2.29-1.69-.76-.57-1.51-1.16-2.25-1.75-.74-.59-1.48-1.19-2.2-1.8-.73-.61-1.45-1.23-2.16-1.86-.71-.63-1.42-1.27-2.11-1.91-.7-.65-1.38-1.3-2.06-1.96-.68-.66-1.35-1.33-2.01-2.01-.66-.68-1.32-1.37-1.96-2.06-.65-.7-1.28-1.4-1.91-2.11-.63-.71-1.25-1.43-1.86-2.16-.61-.73-1.21-1.46-1.8-2.2-.59-.74-1.17-1.49-1.75-2.25-.57-.76-1.14-1.52-1.69-2.29-.55-.77-1.1-1.55-1.63-2.33-17.68-25.39-25.18-55.57-19.73-86.15,5.33-29.86,22.35-55.13,47.18-72.3.82-.56,1.65-1.11,2.49-1.65.84-.54,1.68-1.07,2.53-1.59.85-.52,1.71-1.03,2.57-1.52.86-.5,1.73-.98,2.6-1.46.87-.48,1.75-.94,2.64-1.39.89-.45,1.78-.9,2.67-1.33.9-.43,1.8-.85,2.7-1.26.91-.41,1.82-.81,2.73-1.19.92-.39,1.84-.76,2.76-1.13.93-.36,1.86-.72,2.79-1.06.93-.34,1.87-.67,2.81-.99.94-.32,1.89-.62,2.84-.92.95-.29,1.9-.58,2.85-.85.96-.27,1.92-.53,2.89-.78.97-.25,1.93-.48,2.9-.71.97-.22,1.94-.43,2.92-.63.97-.2,1.95-.39,2.93-.56.98-.18,1.96-.34,2.94-.49.98-.15,1.96-.29,2.95-.42.99-.13,1.98-.24,2.96-.34.99-.1,1.99-.19,2.97-.27.99-.08,1.99-.14,2.98-.2.99-.05,1.98-.09,2.97-.12.99-.03,1.99-.05,2.98-.05.99,0,1.99,0,2.98.02.99.02,1.99.05,2.98.1.99.04,1.99.1,2.98.17.99.07,1.98.15,2.97.24.99.09,1.98.2,2.96.32.99.12,1.98.25,2.96.39.98.14,1.96.3,2.95.46.98.17,1.96.35,2.93.54,2.6.46,5.17,1.03,7.72,1.69,2.55.67,5.07,1.43,7.57,2.3,2.49.87,4.94,1.83,7.35,2.89,2.41,1.06,4.78,2.22,7.1,3.47,4.17,2.25,8.81,5.75,13.34,7.09,1.98.59,3.94.22,5.59-1.02,1.32-.99,2.54-2.5,2.7-4.18.32-3.38-.91-10.43-2.87-13.15-2.05-2.33-5.5-3.71-8.28-5.1-16.6-8.31-36-13.87-54.55-15-7.03-.43-14.04-.22-21.06.09-40.01,5.31-73.13,21.06-98.08,53.53-20.7,26.94-29.19,62.46-24.59,95.95.16,1.12.34,2.24.53,3.36Z"/>
  </g>
</svg>