<?xml version="1.0" encoding="UTF-8"?>
<svg id="Capa_1" data-name="Capa 1" xmlns="http://www.w3.org/2000/svg" viewBox="0 0 500 500">
  <defs>
    <style>
      .cls-1 {
        fill: #fff;
      }

      .cls-2 {
        fill: #214183;
      }
    </style>
  </defs>
  <circle class="cls-1" cx="250" cy="250" r="239.55"/>
  <path class="cls-2" d="m311.7,400.34h-123.39l47.95-35.99v-23.72c-8.06-4.79-13.1-13.5-13.1-23.07s5.04-18.27,13.1-23.07v-12.19c-16.4-3.58-29.47-16.33-33.26-32.99l-3.39-14.91h-11.26c-24.21,0-43.9-19.69-43.9-43.9,0-21.27,15.09-39.1,35.37-43.07l-10.86-47.75h162.1l-10.86,47.75c20.28,3.98,35.37,21.81,35.37,43.07,0,24.21-19.69,43.9-43.9,43.9h-11.26l-3.39,14.91c-3.79,16.67-16.86,29.42-33.26,32.99v12.19c8.06,4.79,13.1,13.5,13.1,23.07s-5.04,18.27-13.1,23.07v23.72l47.96,35.99Zm-90.88-10.84h58.36l-26.29-19.73v-36.06l3.32-1.4c5.94-2.51,9.79-8.3,9.79-14.75s-3.84-12.24-9.79-14.75l-3.32-1.4v-28.62l4.87-.5c14.02-1.44,25.53-11.64,28.66-25.39l31.03-136.39h-134.92l31.03,136.39c3.13,13.75,14.65,23.95,28.66,25.39l4.87.5v28.62l-3.31,1.4c-5.95,2.51-9.79,8.3-9.79,14.75s3.84,12.24,9.79,14.75l3.31,1.4v36.06l-26.28,19.73Zm83.74-173.43h7.09c14.1,0,25.57-11.47,25.57-25.57,0-12.54-9.14-23.05-21.11-25.17l-11.55,50.75Zm-120.68-50.75c-11.97,2.12-21.11,12.64-21.11,25.17,0,14.1,11.47,25.57,25.57,25.57h7.09l-11.55-50.75Zm35.79,59.6l5.79-33.77-24.53-23.91,33.9-4.93,15.16-30.72,15.16,30.72,33.9,4.93-24.53,23.91,5.79,33.77-30.32-15.94-30.32,15.94Zm30.32-28.2l15.92,8.37-3.04-17.73,12.88-12.56-17.8-2.59-7.96-16.13-7.96,16.13-17.8,2.59,12.88,12.56-3.04,17.73,15.92-8.37Z"/>
</svg>