<?xml version="1.0" encoding="UTF-8"?>
<svg id="Capa_1" data-name="Capa 1" xmlns="http://www.w3.org/2000/svg" viewBox="0 0 500 500">
  <defs>
    <style>
      .cls-1 {
        fill: #fff;
      }

      .cls-2 {
        fill: #103e87;
      }
    </style>
  </defs>
  <circle class="cls-2" cx="250" cy="252.39" r="244.17"/>
  <g>
    <path class="cls-1" d="m440.61,303.04l-39.58-93.25c-3.47-8.17-12.95-11.98-21.1-8.54l-38.07,15.29c-9.6,4.07-15.39,14.08-14.24,24.48l-29.62,16.04c-2.12.6-4.39.48-6.4-.35-26.61-10.99-42.12-17.41-42.5-17.57-15.53-8.46-31.11-10.94-46.25-7.38-2.82.66-6.15,2.19-9.68,3.79l-.53.24c-3.65,1.67-9.12,4.2-11.36,4-1.87-.13-3.75-.28-5.64-.43-1.04-.08-2.08-.16-3.12-.24.3-9.77-5.4-18.79-14.39-22.61l-38.04-15.27c-8.17-3.46-17.64.37-21.11,8.53l-39.58,93.25c-1.68,3.96-1.72,8.33-.11,12.32,1.61,3.99,4.68,7.11,8.65,8.8l35.78,14.32c10.42,4.41,22.66,1.47,30.05-7.13l4.64,3.25c4.15,2.99,6.66,7.59,6.89,12.63.37,6.89,2.71,13.45,6.77,19.01,0,0-4.62,6.79-4.68,6.89-3.55,5.96-1.84,13.72,3.88,17.66l11.69,8.04c1.4.96,3.01,1.66,4.68,2.02.91,2.72,2.67,5.08,5,6.68l11.69,8.04c2.21,1.52,4.79,2.33,7.48,2.34.98,1.67,2.26,3.06,3.82,4.12l11.69,8.06c2.23,1.52,4.83,2.32,7.53,2.32.93,0,1.84-.1,2.71-.28.56-.11,1.12-.27,1.68-.48.55.55,1.1,1.02,1.69,1.42l11.68,8.06c3,2.05,6.63,2.79,10.25,2.04,2.75-.58,5.26-2.06,7.15-4.2l2.16,1.56c.26.2.52.37.71.48,3.16,2.13,6.86,3.26,10.7,3.26,1.4,0,2.77-.15,4.08-.44,5.24-1.16,9.65-4.33,12.39-8.93,1.24-2.05,2.05-4.29,2.41-6.66,1.88.18,3.66.14,5.51-.16,5.7-.91,10.72-4,14.13-8.7,1.96-2.7,3.26-5.86,3.8-9.21,8.37,1.75,16.88-1.52,21.92-8.49,3.39-4.67,4.76-10.38,3.86-16.07-.03-.2-.07-.4-.11-.6,4.07-1.05,7.73-3.32,10.36-6.44,3.93-4.64,5.64-10.66,4.68-16.52-.55-3.54-2.01-6.86-4.24-9.64l1.55-2.08c.79-1.06,1.85-1.9,2.91-2.34l31.5-8.73c5.99,1.87,12.36,1.58,17.95-.79l35.81-14.32c8.17-3.47,12-12.94,8.53-21.11Zm-177.46,31.17c-2.29,2.99-1.72,7.27,1.26,9.57l50.6,38.83c1.74,1.25,2.88,3.09,3.21,5.18.33,2.08-.17,4.19-1.43,5.92-1.26,1.73-3.12,2.88-5.22,3.23-2.09.33-4.18-.14-5.84-1.34l-43.57-33.63c-2.96-2.3-7.25-1.78-9.56,1.19-1.12,1.44-1.61,3.23-1.38,5.03.22,1.81,1.14,3.41,2.57,4.53l35.47,27.65c1.77,1.28,2.92,3.06,3.23,5.04.23,1.53.16,3.81-1.42,5.99-1.27,1.75-3.13,2.91-5.24,3.25-2.08.31-4.18-.17-5.91-1.42-.31-.22-19.11-14.45-19.11-14.45-1.25-1.64-2.47-2.88-3.82-3.92-4.62-3.51-10.54-4.89-16.25-3.78-.92.19-1.82.43-2.71.73-1.4-3.15-3.57-5.91-6.33-8-4.43-3.37-10.06-4.76-15.7-3.86-1.21-4.22-3.77-7.98-7.29-10.65-3.83-2.91-8.76-4.39-13.61-4.08-.9-5-3.7-9.58-7.76-12.67-4.61-3.49-10.52-4.85-16.26-3.77-3.85.76-7.47,2.68-10.3,5.44-1.07-2.44-1.71-5.07-1.85-7.67-.42-9.18-5.02-17.59-12.61-23.07l-5.97-4.17,28.32-66.72c3.85.29,7.76.57,11.7.83,5.67.38,12.04-2.51,18.24-5.35l.64-.29c2.59-1.18,5.28-2.4,6.73-2.73,5.43-1.28,11.04-1.54,16.72-.74l-32.58,10.78c-6.43,2.1-11.22,7.59-12.51,14.37l-6.15,38.72c-1.23,6.24.77,12.7,5.22,16.87,5.89,5.49,13.86,6.73,22.45,3.52,5.11-1.94,9.55-5.45,12.84-10.16.19-.27.36-.55.51-.85l12.4-24.66,17.44-.98,88.02,67.74c1.53,1.11,2.52,2.72,2.8,4.56.33,1.97-.25,3.94-1.63,5.56h0c-2.19,2.61-6.41,3.02-9.53.99l-49.28-37.82c-2.98-2.27-7.27-1.71-9.55,1.26Zm-34.18,87.87c1.88-2.76,9.75-14.29,9.85-14.44,1-1.68,2.61-2.81,4.52-3.18,1.94-.4,3.85.08,5.39,1.25,2.75,2.08,3.5,5.86,1.76,8.8l-10.47,15.2-11.04-7.61Zm-14.24-3.43l-11.06-7.61q9.82-14.37,9.84-14.44c1-1.68,2.6-2.81,4.52-3.18,2.12-.4,3.86.09,5.39,1.25,2.72,2.07,3.49,5.82,1.78,8.75-7.49,10.88-9.85,14.32-10.48,15.24Zm-34.04-22.12l10.32-15.06c1.02-1.37,2.42-2.26,4.05-2.57,1.95-.39,3.86.08,5.39,1.25,2.75,2.08,3.5,5.88,1.77,8.77-7.61,11.04-9.82,14.24-10.47,15.22l-11.06-7.61Zm10.89,7.86s-.02.02-.02.04h0s.02-.02.03-.04Zm-32.25-24.61c9.73-14.26,9.81-14.38,9.84-14.44,1-1.67,2.6-2.81,4.52-3.18,2.08-.42,3.86.08,5.39,1.25,2.75,2.09,3.5,5.88,1.78,8.77-7.7,11.19-9.86,14.32-10.48,15.22l-11.05-7.6Zm10.86,7.89s-.02.02-.02.03h0s.02-.02.02-.03Zm162.79-45.48l-1.1,1.47c-75.54-58.16-81.62-62.84-81.69-62.89-2.29-1.57-5.1-2.43-7.94-2.43h0l-18.09.91c-4.3.23-8.19,2.41-10.67,5.95-.19.27-.36.56-.51.85l-12.38,24.8c-1.68,2.3-3.85,4-6.28,4.92-5.36,2.02-7.6-.04-8.33-.72-1.06-1-1.48-2.68-1.12-4.52l6.15-38.75c.34-1.76,1.62-3.21,3.34-3.76l47.61-15.77c1.13-.37,2.36-.33,3.45.11l40.96,16.92c5.17,2.14,10.93,2.36,16.21.6.38-.12.75-.28,1.12-.47l28.28-15.29,29.9,70.43c.62,1.46,1.44,2.92,2.47,4.43l-21.42,5.94c-.21.05-.42.12-.61.19-3.72,1.41-6.95,3.85-9.34,7.06Zm-75.14,85.64c3.98-5.77,4.13-6,4.16-6.04.64-1.04,1.18-2.18,1.67-3.52.51.37.98.7,1.39.99l1.11.79c2.66,1.93,3.64,5.43,2.18,7.81h0c-.82,1.4-2.11,2.34-3.63,2.67-1.49.34-3.01.04-4.29-.85l-2.58-1.85Z"/>
    <g>
      <path class="cls-1" d="m277.5,130.84c-.86-2.63.08-5.52,2.32-7.14l22.51-16.35c5.01-3.64,2.43-11.56-3.76-11.56h-27.82c-2.77,0-5.22-1.78-6.08-4.42l-8.6-26.46c-1.91-5.89-10.24-5.89-12.15,0l-8.6,26.46c-.86,2.63-3.31,4.42-6.08,4.42h-27.82c-6.19,0-8.76,7.92-3.76,11.56l22.51,16.35c2.24,1.63,3.18,4.51,2.32,7.14l-8.6,26.46c-1.91,5.89,4.83,10.78,9.83,7.14l22.51-16.35c2.24-1.63,5.27-1.63,7.51,0l22.51,16.35c5.01,3.64,11.75-1.26,9.83-7.14l-8.6-26.46Z"/>
      <path class="cls-1" d="m383.2,140.94c3.78-2.75,1.84-8.73-2.84-8.73h-21.02c-2.09,0-3.95-1.35-4.59-3.34l-6.49-19.99c-1.45-4.45-7.74-4.45-9.18,0l-6.49,19.99c-.65,1.99-2.5,3.34-4.59,3.34h-21.02c-4.68,0-6.62,5.98-2.84,8.73l17,12.35c1.69,1.23,2.4,3.41,1.75,5.4l-6.49,19.99c-1.45,4.45,3.65,8.15,7.43,5.4l17-12.35c1.69-1.23,3.98-1.23,5.68,0l17,12.35c3.78,2.75,8.87-.95,7.43-5.4l-6.49-19.99c-.65-1.99.06-4.17,1.75-5.4l17-12.35Z"/>
      <path class="cls-1" d="m193.03,132.21h-21.02c-2.09,0-3.95-1.35-4.59-3.34l-6.49-19.99c-1.45-4.45-7.74-4.45-9.18,0l-6.5,19.99c-.65,1.99-2.5,3.34-4.59,3.34h-21.02c-4.68,0-6.62,5.98-2.84,8.73l17,12.35c1.69,1.23,2.4,3.41,1.75,5.4l-6.49,19.99c-1.45,4.45,3.65,8.15,7.43,5.4l17-12.35c1.69-1.23,3.98-1.23,5.68,0l17,12.35c3.78,2.75,8.87-.95,7.43-5.4l-6.49-19.99c-.65-1.99.06-4.17,1.75-5.4l17-12.35c3.78-2.75,1.84-8.73-2.84-8.73Z"/>
    </g>
  </g>
</svg>