<?xml version="1.0" encoding="UTF-8"?>
<svg id="Capa_1" data-name="Capa 1" xmlns="http://www.w3.org/2000/svg" viewBox="0 0 500 500">
  <defs>
    <style>
      .cls-1 {
        fill: #fff;
      }

      .cls-2 {
        fill: #103e87;
      }
    </style>
  </defs>
  <circle class="cls-1" cx="250" cy="250" r="240.71"/>
  <g>
    <path class="cls-2" d="m203.12,279.08c-7.22-6.32-12.8-14.46-16.04-23.69-3.62-1.87-7.38-3.5-11.27-4.88-8.82,5.8-19.37,9.18-30.7,9.18s-21.87-3.38-30.7-9.18c-34.67,12.32-59.84,44.88-61.19,83.4h95.25c4.89-12.25,12.26-23.49,21.86-33.1,9.52-9.52,20.65-16.84,32.77-21.73Z"/>
    <path class="cls-2" d="m194.62,203.66c0,.14,0,.29,0,.43-6.21,8.56-10.06,18.93-10.6,30.15-2.67,3.39-5.77,6.42-9.21,9.01-1.12.84-2.28,1.64-3.47,2.38-1.32.83-2.69,1.6-4.09,2.3-6.66,3.34-14.18,5.23-22.13,5.23s-15.46-1.89-22.13-5.23c-1.4-.71-2.77-1.47-4.09-2.3-1.19-.75-2.35-1.54-3.47-2.38-12.02-9.04-19.81-23.42-19.81-39.59,0-27.29,22.21-49.5,49.5-49.5s49.5,22.21,49.5,49.5Z"/>
    <path class="cls-2" d="m304.14,250.5c-3.88,1.38-7.64,3.02-11.27,4.88-3.23,9.23-8.82,17.37-16.04,23.69,12.12,4.89,23.25,12.21,32.77,21.73,9.61,9.61,16.98,20.85,21.86,33.1h95.25c-1.35-38.52-26.51-71.09-61.19-83.4-8.82,5.8-19.37,9.18-30.7,9.18s-21.87-3.38-30.7-9.18Z"/>
    <path class="cls-2" d="m384.34,203.66c0,16.17-7.79,30.55-19.82,39.59-1.12.84-2.28,1.64-3.47,2.38-1.32.83-2.69,1.6-4.09,2.3-6.66,3.34-14.18,5.23-22.13,5.23s-15.46-1.89-22.13-5.23c-1.4-.71-2.77-1.47-4.09-2.3-1.19-.75-2.35-1.54-3.47-2.38-3.44-2.59-6.54-5.62-9.21-9.01-.53-11.22-4.38-21.6-10.6-30.16,0-.14,0-.28,0-.42,0-27.29,22.2-49.5,49.5-49.5s49.5,22.21,49.5,49.5Z"/>
    <path class="cls-2" d="m331.86,367.17h-183.77c.33-9.33,2.05-18.31,4.97-26.74.38-1.1.78-2.19,1.2-3.26.43-1.1.88-2.19,1.35-3.26,10.12-23.28,29.6-41.59,53.67-50.14,4.63,3.04,9.73,5.42,15.17,6.99,1.44.42,2.91.78,4.4,1.08,1.34.27,2.7.5,4.07.67,2.31.29,4.67.44,7.05.44s4.75-.16,7.05-.44c1.37-.17,2.73-.4,4.07-.67,1.49-.3,2.96-.66,4.4-1.08,5.44-1.57,10.54-3.95,15.17-6.99,24.07,8.55,43.55,26.86,53.67,50.14.47,1.08.92,2.16,1.35,3.26.42,1.08.82,2.16,1.2,3.26,2.92,8.43,4.64,17.41,4.97,26.74Z"/>
    <path class="cls-2" d="m289.48,236.52c0,4.81-.69,9.47-1.98,13.87-.47,1.62-1.02,3.2-1.65,4.75-.8,1.96-1.72,3.86-2.75,5.69-3.38,5.97-7.96,11.18-13.43,15.29-1.12.84-2.28,1.64-3.47,2.38-1.32.83-2.69,1.6-4.09,2.3-.04-.01-.08-.02-.12-.03-.04.05-.08.1-.11.15-1.88.93-3.83,1.75-5.84,2.44-1.57.54-3.18,1-4.82,1.39-3.61.84-7.36,1.29-11.23,1.29s-7.62-.45-11.23-1.29c-1.64-.38-3.25-.84-4.82-1.39-2.01-.69-3.95-1.51-5.84-2.44-.04-.05-.07-.1-.11-.15-.04.01-.09.02-.13.03-1.4-.71-2.77-1.47-4.09-2.3-1.19-.75-2.35-1.54-3.47-2.38-5.46-4.11-10.04-9.31-13.42-15.29-1.04-1.83-1.95-3.73-2.75-5.69-.63-1.55-1.18-3.13-1.66-4.75-1.29-4.4-1.98-9.05-1.98-13.87,0-.14,0-.28,0-.42.02-2.3.2-4.56.52-6.78.93-6.38,3.09-12.37,6.22-17.72,1.16-1.98,2.44-3.87,3.86-5.66,9.07-11.51,23.14-18.92,38.9-18.92s29.83,7.41,38.9,18.92c1.41,1.79,2.7,3.68,3.86,5.66,3.13,5.35,5.28,11.34,6.22,17.72.32,2.22.5,4.48.52,6.78,0,.14,0,.28,0,.42Z"/>
  </g>
</svg>