<?xml version="1.0" encoding="UTF-8"?>
<svg id="Capa_1" data-name="Capa 1" xmlns="http://www.w3.org/2000/svg" viewBox="0 0 500 500">
  <defs>
    <style>
      .cls-1 {
        fill: #fff;
      }

      .cls-2 {
        fill: #103e87;
      }
    </style>
  </defs>
  <circle class="cls-1" cx="250" cy="250" r="249.23"/>
  <g>
    <g>
      <path class="cls-2" d="m320.87,86.06h-136.18c-1.64,0-3.12.42-4.49,1.11-.21.11-.42.16-.58.26-.79.48-1.53.95-2.22,1.64l-61.5,61.5c-.63.69-1.16,1.43-1.59,2.17-.16.21-.26.42-.32.58-.74,1.43-1.11,2.96-1.11,4.55v192.92c0,5.61,4.6,10.21,10.26,10.21h119.73c-2.27-6.5-3.65-13.43-3.97-20.52h-105.5v-172.4h51.3c5.66,0,10.21-4.6,10.21-10.21v-51.3h115.71v129.04c3.23-1.27,6.72-1.9,10.26-1.9s7.03.63,10.26,1.9V96.32c0-5.66-4.6-10.26-10.26-10.26Z"/>
      <rect class="cls-2" x="150.11" y="191.37" width="143.8" height="18.06" rx="4.43" ry="4.43"/>
      <rect class="cls-2" x="150.11" y="228.62" width="143.8" height="18.06" rx="4.43" ry="4.43"/>
      <path class="cls-2" d="m244.67,265.87c-3.81,4.97-5.87,11.16-5.87,17.5v.58h-84.24c-2.43,0-4.44-2.01-4.44-4.44v-9.2c0-2.43,2.01-4.44,4.44-4.44h90.11Z"/>
      <path class="cls-2" d="m238.8,303.15v18.03h-84.24c-2.43,0-4.44-1.96-4.44-4.39v-9.2c0-2.49,2.01-4.44,4.44-4.44h84.24Z"/>
    </g>
    <path class="cls-2" d="m320.89,308.26c-12.98,0-23.5,10.52-23.5,23.5s10.52,23.5,23.5,23.5,23.5-10.52,23.5-23.5-10.52-23.5-23.5-23.5Z"/>
    <path class="cls-2" d="m372.23,270.04c-1.68.22-3.37.27-5.05.27-14.45,0-27.44-6.3-36.35-16.3-5.22-5.92-14.67-5.92-19.89,0-8.91,10-21.84,16.3-36.29,16.3-1.74,0-3.42-.05-5.11-.27-7.93-.81-14.89,5.32-14.89,13.31v53.52c0,17.22,7.77,33.52,21.14,44.33l36.67,29.72c4.89,4.02,11.95,4.02,16.9,0l36.62-29.72c13.37-10.81,21.14-27.11,21.14-44.33v-53.52c0-7.99-6.95-14.13-14.89-13.31Zm-3.73,69.92c-.13.76-.74,1.35-1.51,1.48l-3.31.55c-2.68.43-4.93,2.23-5.97,4.72l-.12.29c-1.09,2.63-.74,5.66.92,7.97l1.81,2.55c.45.63.46,1.48.02,2.11-3.17,4.49-7.09,8.41-11.58,11.58-.63.44-1.48.43-2.11-.02l-5.42-3.86c-.5-.36-1.16-.44-1.73-.21l-6.73,2.7c-.59.24-1.01.76-1.12,1.39l-1.1,6.65c-.13.76-.71,1.38-1.47,1.51-2.67.46-5.41.7-8.2.7s-5.54-.24-8.2-.7c-.76-.13-1.35-.74-1.48-1.5-.15-.94-.32-1.97-.49-2.97-.48-2.91-2.44-5.31-5.15-6.45-.02-.02-.05-.03-.09-.03-2.51-1.07-5.4-.76-7.61.83l-2.74,1.95c-.63.45-1.48.46-2.11.02-4.49-3.17-8.43-7.09-11.58-11.6-.44-.63-.42-1.48.02-2.11l1.81-2.53c1.66-2.33,1.99-5.34.9-7.97l-.12-.29c-1.04-2.51-3.29-4.29-5.95-4.72l-3.31-.55c-.76-.13-1.38-.72-1.51-1.48-.46-2.67-.7-5.41-.7-8.21s.23-5.53.7-8.2c.13-.76.75-1.35,1.51-1.47l3.31-.55c2.66-.45,4.89-2.23,5.95-4.72l.21-.5c1.04-2.51.73-5.38-.87-7.58l-1.95-2.72c-.45-.63-.47-1.48-.02-2.11,3.17-4.5,7.1-8.42,11.59-11.61.63-.45,1.49-.43,2.12.02l5.4,3.87c.5.36,1.16.44,1.73.21l6.72-2.68c.59-.24,1.01-.76,1.12-1.39l1.12-6.67c.13-.76.71-1.37,1.47-1.51,2.67-.46,5.41-.7,8.2-.7s5.53.23,8.2.7c.76.13,1.35.75,1.47,1.51l1.1,6.61c.1.62.52,1.14,1.1,1.38l3.59,1.48c2.49,1.04,5.36.73,7.58-.86l2.72-1.95c.63-.45,1.48-.47,2.12-.02,4.49,3.18,8.42,7.1,11.59,11.59.44.63.43,1.48-.02,2.11l-1.95,2.74c-1.57,2.2-1.9,5.07-.87,7.58l.22.5c1.04,2.49,3.29,4.27,5.95,4.72l3.31.55c.76.13,1.38.71,1.51,1.47.46,2.67.7,5.41.7,8.2s-.24,5.55-.7,8.21Z"/>
  </g>
</svg>