<?xml version="1.0" encoding="UTF-8"?>
<svg id="Capa_1" data-name="Capa 1" xmlns="http://www.w3.org/2000/svg" viewBox="0 0 500 500">
  <defs>
    <style>
      .cls-1 {
        fill: #fff;
      }

      .cls-2 {
        fill: #103e87;
      }
    </style>
  </defs>
  <circle class="cls-2" cx="250" cy="250" r="244.17"/>
  <g>
    <path class="cls-1" d="m339.91,212.02c-4.91-11.62-11.95-22.06-20.91-31.02-8.96-8.96-19.4-16-31.02-20.91-12.03-5.09-24.81-7.67-37.98-7.67s-25.95,2.58-37.98,7.67c-11.62,4.91-22.06,11.95-31.02,20.91-8.96,8.96-16,19.4-20.91,31.02-5.09,12.03-7.67,24.81-7.67,37.98s2.58,25.95,7.67,37.98c4.91,11.62,11.95,22.06,20.91,31.02,8.96,8.96,19.4,16,31.02,20.91,12.03,5.09,24.81,7.67,37.98,7.67s25.95-2.58,37.98-7.67c11.62-4.91,22.06-11.95,31.02-20.91,8.96-8.96,16-19.4,20.91-31.02,5.09-12.03,7.67-24.81,7.67-37.98s-2.58-25.95-7.67-37.98Zm-102.31,97.75l-25.92-22.25-24.96-21.43,22.18-25.85,22.94,19.69,53.93-69.71,27.49,20.1-75.67,99.44Z"/>
    <path class="cls-1" d="m411.02,250.08l-17.98-28.45,5.76-33.16-27.48-19.43-7.42-32.82-32.83-7.41-19.39-27.51-33.17,5.67-28.45-17.97-28.45,17.98-33.16-5.76-19.43,27.48-32.82,7.42-7.41,32.83-27.51,19.39,5.67,33.17-17.97,28.45,17.98,28.45-5.76,33.16,27.48,19.43,7.42,32.82,32.83,7.41,19.39,27.51,33.17-5.67,28.45,17.97,28.45-17.98,33.16,5.76,19.43-27.48,32.82-7.42,7.41-32.83,27.51-19.39-5.67-33.17,17.97-28.45Zm-161.02,114.42c-63.24,0-114.5-51.26-114.5-114.5s51.26-114.5,114.5-114.5,114.5,51.26,114.5,114.5-51.26,114.5-114.5,114.5Z"/>
  </g>
</svg>